# xmcd CD database file
#
# Track frame offsets:
#	150
#	31315
#	55950
#	77358
#
# Disc length: 1235 seconds
#
# Revision: 3
# Processed by: cddbd v1.5.2PL0 Copyright (c) Steve Scherf et al.
# Submitted via: CDex 1.51
#
DISCID=2404d104
DTITLE=Peter Green Splinter Group - Reaching The Cold 100 (Disc-2: Bonus Disc)
DYEAR=2003
DGENRE=Blues
TTITLE0=Black Magic Woman
TTITLE1=It Takes Time
TTITLE2=Green Manalishi
TTITLE3=Albatross
EXTD=www.colornotes.nl YEAR: 2003
EXTT0=
EXTT1=
EXTT2=
EXTT3=
PLAYORDER=
